# xmcd
#
# Track frame offsets:
# 182
# 17227
# 29205
# 44027
# 58502
# 72155
# 86607
# 102315
# 117720
# 134045
# 146162
# 158850
#
# Disc length: 2294 seconds
#
#
# Revision: 0
# Processed by: cddbd v1.5PL3 Copyright (c) Steve Scherf et al.
# Submitted via: FreeRIP 2.12 
#
DISCID=be08f40c
DTITLE=Julio Iglesias - Lo mejor de Julio Iglesias
DYEAR=1991
DGENRE=
TTITLE0=Corazon,corazon
TTITLE1=Cuando vivas conmigo
TTITLE2=Desde que tu te has ido
TTITLE3=De un mundo raro
TTITLE4=Maria bonita
TTITLE5=Historia de un amor
TTITLE6=Dieciseis años
TTITLE7=Ella
TTITLE8=Solamente una vez
TTITLE9=Alma llanera
TTITLE10=Quiero
TTITLE11=Ay,ay,ay
EXTD=
EXTT0=
EXTT1=
EXTT2=
EXTT3=
EXTT4=
EXTT5=
EXTT6=
EXTT7=
EXTT8=
EXTT9=
EXTT10=
EXTT11=
PLAYORDER=
